<mxfile host="app.diagrams.net" modified="2020-11-02T13:48:23.880Z" agent="5.0 (Windows)" etag="zVJRbx1V6dxAkaUXB5-g" version="13.8.8" type="github">
  <diagram id="Vfz_66p9wcdMB7aPCSuo" name="Page-1">
    <mxGraphModel dx="1038" dy="547" grid="1" gridSize="10" guides="1" tooltips="1" connect="1" arrows="1" fold="1" page="1" pageScale="1" pageWidth="1169" pageHeight="827" math="0" shadow="0">
      <root>
        <mxCell id="0" />
        <mxCell id="1" parent="0" />
        <mxCell id="7xLf9PaOSlVCMq8ttG8S-1" value="POMAC - Prison Process" style="swimlane;html=1;childLayout=stackLayout;resizeParent=1;resizeParentMax=0;horizontal=1;startSize=20;horizontalStack=0;" vertex="1" parent="1">
          <mxGeometry x="10" y="20" width="1150" height="680" as="geometry" />
        </mxCell>
        <mxCell id="7xLf9PaOSlVCMq8ttG8S-2" value="Pardon Officer" style="swimlane;html=1;startSize=20;horizontal=0;" vertex="1" parent="7xLf9PaOSlVCMq8ttG8S-1">
          <mxGeometry y="20" width="1150" height="200" as="geometry" />
        </mxCell>
        <mxCell id="7xLf9PaOSlVCMq8ttG8S-3" value="Medical officer" style="swimlane;html=1;startSize=20;horizontal=0;" vertex="1" parent="7xLf9PaOSlVCMq8ttG8S-1">
          <mxGeometry y="220" width="1150" height="150" as="geometry" />
        </mxCell>
        <mxCell id="7xLf9PaOSlVCMq8ttG8S-4" value="Social/Welfare officer" style="swimlane;html=1;startSize=20;horizontal=0;" vertex="1" parent="7xLf9PaOSlVCMq8ttG8S-1">
          <mxGeometry y="370" width="1150" height="160" as="geometry" />
        </mxCell>
        <mxCell id="7xLf9PaOSlVCMq8ttG8S-9" value="Prison-in-charge" style="swimlane;html=1;startSize=20;horizontal=0;" vertex="1" parent="7xLf9PaOSlVCMq8ttG8S-1">
          <mxGeometry y="530" width="1150" height="150" as="geometry" />
        </mxCell>
      </root>
    </mxGraphModel>
  </diagram>
</mxfile>
